HIERARCHY
ROOT Hips
{
	OFFSET 0.00000 0.00000 0.00000
	CHANNELS 6 Xposition Yposition Zposition Zrotation Yrotation Xrotation 
	JOINT LHipJoint
	{
		OFFSET 0 0 0
		CHANNELS 3 Zrotation Yrotation Xrotation
		JOINT LeftUpLeg
		{
			OFFSET 1.58895 -1.83665 0.71753
			CHANNELS 3 Zrotation Yrotation Xrotation
			JOINT LeftLeg
			{
				OFFSET 2.50528 -6.88321 0.00000
				CHANNELS 3 Zrotation Yrotation Xrotation
				JOINT LeftFoot
				{
					OFFSET 2.63244 -7.23257 0.00000
					CHANNELS 3 Zrotation Yrotation Xrotation
					JOINT LeftToeBase
					{
						OFFSET 0.23691 -0.65090 1.72750
						CHANNELS 3 Zrotation Yrotation Xrotation
						End Site
						{
							OFFSET 0.00000 -0.00000 0.92561
						}
					}
				}
			}
		}
	}
	JOINT RHipJoint
	{
		OFFSET 0 0 0
		CHANNELS 3 Zrotation Yrotation Xrotation
		JOINT RightUpLeg
		{
			OFFSET -1.51435 -1.83665 0.71753
			CHANNELS 3 Zrotation Yrotation Xrotation
			JOINT RightLeg
			{
				OFFSET -2.54551 -6.99375 0.00000
				CHANNELS 3 Zrotation Yrotation Xrotation
				JOINT RightFoot
				{
					OFFSET -2.66027 -7.30903 0.00000
					CHANNELS 3 Zrotation Yrotation Xrotation
					JOINT RightToeBase
					{
						OFFSET -0.22981 -0.63138 2.03959
						CHANNELS 3 Zrotation Yrotation Xrotation
						End Site
						{
							OFFSET -0.00000 -0.00000 1.07060
						}
					}
				}
			}
		}
	}
	JOINT LowerBack
	{
		OFFSET 0 0 0
		CHANNELS 3 Zrotation Yrotation Xrotation
		JOINT Spine
		{
			OFFSET -0.02651 1.86275 -0.11152
			CHANNELS 3 Zrotation Yrotation Xrotation
			JOINT Spine1
			{
				OFFSET 0.01019 1.86224 0.04087
				CHANNELS 3 Zrotation Yrotation Xrotation
				JOINT Neck
				{
					OFFSET 0 0 0
					CHANNELS 3 Zrotation Yrotation Xrotation
					JOINT Neck1
					{
						OFFSET -0.01926 1.80512 0.08867
						CHANNELS 3 Zrotation Yrotation Xrotation
						JOINT Head
						{
							OFFSET 0.05516 1.76451 -0.38475
							CHANNELS 3 Zrotation Yrotation Xrotation
							End Site
							{
								OFFSET 0.01592 1.82587 -0.14001
							}
						}
					}
				}
				JOINT LeftShoulder
				{
					OFFSET 0 0 0
					CHANNELS 3 Zrotation Yrotation Xrotation
					JOINT LeftArm
					{
						OFFSET 3.47116 1.51376 0.14491
						CHANNELS 3 Zrotation Yrotation Xrotation
						JOINT LeftForeArm
						{
							OFFSET 4.78095 -0.00000 0.00000
							CHANNELS 3 Zrotation Yrotation Xrotation
							JOINT LeftHand
							{
								OFFSET 3.58615 -0.00000 -0.00000
								CHANNELS 3 Zrotation Yrotation Xrotation
								JOINT LeftFingerBase
								{
									OFFSET 0 0 0
									CHANNELS 3 Zrotation Yrotation Xrotation
									JOINT LeftHandIndex1
									{
										OFFSET 0.65981 -0.00000 0.00000
										CHANNELS 3 Zrotation Yrotation Xrotation
										End Site
										{
											OFFSET 0.53196 -0.00000 0.00000
										}
									}
								}
								JOINT LThumb
								{
									OFFSET 0 0 0
									CHANNELS 3 Zrotation Yrotation Xrotation
									End Site
									{
										OFFSET 0.54008 -0.00000 0.54008
									}
								}
							}
						}
					}
				}
				JOINT RightShoulder
				{
					OFFSET 0 0 0
					CHANNELS 3 Zrotation Yrotation Xrotation
					JOINT RightArm
					{
						OFFSET -3.31725 1.61216 0.35156
						CHANNELS 3 Zrotation Yrotation Xrotation
						JOINT RightForeArm
						{
							OFFSET -4.48913 -0.00000 0.00000
							CHANNELS 3 Zrotation Yrotation Xrotation
							JOINT RightHand
							{
								OFFSET -3.70510 -0.00000 0.00000
								CHANNELS 3 Zrotation Yrotation Xrotation
								JOINT RightFingerBase
								{
									OFFSET 0 0 0
									CHANNELS 3 Zrotation Yrotation Xrotation
									JOINT RightHandIndex1
									{
										OFFSET -0.44914 -0.00000 0.00000
										CHANNELS 3 Zrotation Yrotation Xrotation
										End Site
										{
											OFFSET -0.36211 -0.00000 0.00000
										}
									}
								}
								JOINT RThumb
								{
									OFFSET 0 0 0
									CHANNELS 3 Zrotation Yrotation Xrotation
									End Site
									{
										OFFSET -0.36763 -0.00000 0.36763
									}
								}
							}
						}
					}
				}
			}
		}
	}
}
MOTION
Frames: 15
Frame Time: .0083333
-0.7498 18.6674 5.9097 0 0 0 0 0 0 -21 0 0 0 0 0 0 0 0 0 0 0 0 0 0 21 0 0 0 0 0 0 0 0 0 0 0 0 0 0 0 0 0 0 0 0 0 0 -16 0 0 21 0 0 11 0 0 0 -8 0 0 0 0 0 0 0 0 0 0 0 0 0 0 0 0 0 0 0 0 8 0 0 0 0 0 0 0 0 0 0 0 0 0 0 0 0 0
-0.7498 18.6674 5.9097 -5.4575 -5.4858 0.9461 0.0000 0.0000 0.0000 -9.5061 -7.8943 -2.2010 1.6807 8.1667 23.2214 1.8751 4.5276 -27.8131 8.1436 -16.2239 -53.0784 0.0000 0.0000 0.0000 18.9112 -3.2313 6.6166 0.0000 -0.0000 0.0000 -0.5089 -0.4605 -13.6509 -0.1958 2.8493 -7.8594 3.0498 0.9327 1.1456 1.1432 1.3319 -1.4709 -0.5743 0.6261 -2.1098 0.6652 0.5121 -11.5506 2.3524 0.0143 22.2575 0.6866 0.3059 8.8609 -0.0000 -0.0000 0.0000 -92.7712 11.5462 23.9715 20.5050 -31.2459 -5.7910 -0.0000 -0.0000 14.0489 3.2600 -25.1604 -1.3872 -7.1250 0.0000 -0.0000 -15.9549 5.5793 14.9326 -0.0000 -0.0000 0.0000 90.7799 -17.1219 24.2087 -22.2535 33.2624 -6.7244 0.0000 0.0000 21.1212 -6.7317 -26.3478 2.9987 7.1250 -0.0000 -0.0000 24.5264 -54.7518 -6.1512
-0.7505 18.6667 5.9089 -5.4583 -5.4823 0.9465 0.0000 0.0000 0.0000 -9.5028 -7.9087 -2.2035 1.6819 8.1694 23.2298 1.8784 4.5252 -27.8346 8.1395 -16.2209 -53.0638 0.0000 0.0000 0.0000 18.9137 -3.2350 6.6164 0.0000 0.0000 -0.0000 -0.5101 -0.4432 -13.6599 -0.2000 2.8798 -7.9442 3.0305 0.9267 1.1598 1.1511 1.3244 -1.4749 -0.5555 0.6225 -2.1228 0.5723 0.5098 -11.6133 2.4339 0.0093 22.3274 0.7302 0.3053 8.8964 0.0000 -0.0000 0.0000 -92.7877 11.5518 23.9333 20.4950 -31.2341 -5.7858 -0.0000 -0.0000 14.0785 3.3125 -25.2479 -1.4142 -7.1250 0.0000 -0.0000 -15.9228 5.4911 14.9277 0.0000 -0.0000 0.0000 90.7517 -17.1114 24.2554 -22.2442 33.2519 -6.7192 0.0000 0.0000 21.1008 -6.7569 -26.3449 3.0097 7.1250 -0.0000 -0.0000 24.5001 -54.7538 -6.1452
-0.7503 18.6671 5.9084 -5.4441 -5.4764 0.9545 0.0000 0.0000 0.0000 -9.5197 -7.9161 -2.2182 1.6817 8.1691 23.2288 1.8729 4.5551 -27.8121 8.1463 -16.2258 -53.0880 0.0000 0.0000 0.0000 18.8990 -3.2381 6.6070 0.0000 -0.0000 0.0000 -0.5115 -0.4471 -13.6810 -0.2112 2.9587 -8.1638 3.0144 0.9322 1.1608 1.1438 1.3319 -1.4971 -0.5544 0.6259 -2.1461 0.5204 0.4905 -11.5864 2.4760 -0.0168 22.3565 0.7505 0.2932 8.9016 0.0000 0.0000 0.0000 -92.7703 11.5963 23.9645 20.4980 -31.2377 -5.7874 -0.0000 -0.0000 14.0652 3.3925 -25.3207 -1.4523 -7.1250 0.0000 -0.0000 -15.8746 5.4149 14.9025 0.0000 0.0000 0.0000 90.7628 -17.1558 24.2324 -22.2419 33.2493 -6.7180 0.0000 0.0000 21.1533 -6.8360 -26.2864 3.0390 7.1250 -0.0000 -0.0000 24.3856 -54.7159 -6.0907
-0.7491 18.6677 5.9080 -5.4361 -5.4736 0.9550 0.0000 0.0000 0.0000 -9.5348 -7.9208 -2.2319 1.6825 8.1708 23.2342 1.8652 4.6013 -27.7835 8.1667 -16.2405 -53.1608 0.0000 0.0000 0.0000 18.8851 -3.2384 6.5999 0.0000 -0.0000 0.0000 -0.5117 -0.4511 -13.6845 -0.2048 2.9140 -8.0394 3.0167 0.9366 1.1582 1.1338 1.3377 -1.5038 -0.5661 0.6286 -2.1511 0.5244 0.4794 -11.5518 2.4699 -0.0311 22.3541 0.7459 0.2859 8.8945 0.0000 0.0000 0.0000 -92.7593 11.6121 23.9592 20.5046 -31.2455 -5.7908 -0.0000 -0.0000 14.0975 3.4212 -25.3148 -1.4643 -7.1250 0.0000 -0.0000 -15.8576 5.4183 14.8842 0.0000 0.0000 0.0000 90.7751 -17.1769 24.2272 -22.2482 33.2564 -6.7215 0.0000 0.0000 21.1550 -6.8603 -26.2736 3.0485 7.1250 -0.0000 -0.0000 24.3539 -54.7089 -6.0778
-0.7490 18.6681 5.9070 -5.4616 -5.4713 0.9544 0.0000 0.0000 0.0000 -9.5044 -7.9171 -2.2428 1.6833 8.1727 23.2399 1.8632 4.6171 -27.7779 8.1779 -16.2486 -53.2011 0.0000 0.0000 0.0000 18.9114 -3.2385 6.5942 0.0000 -0.0000 0.0000 -0.5101 -0.4562 -13.6649 -0.2031 2.9016 -8.0048 3.0291 0.9336 1.1585 1.1444 1.3338 -1.4908 -0.5620 0.6268 -2.1379 0.5212 0.4825 -11.5784 2.4703 -0.0267 22.3587 0.7473 0.2880 8.9009 0.0000 0.0000 0.0000 -92.7719 11.5909 23.9209 20.5081 -31.2497 -5.7926 -0.0000 -0.0000 14.1411 3.4485 -25.2861 -1.4744 -7.1250 0.0000 -0.0000 -15.8417 5.4438 14.8600 0.0000 0.0000 0.0000 90.7632 -17.1501 24.2586 -22.2504 33.2588 -6.7226 0.0000 0.0000 21.1057 -6.8240 -26.2762 3.0325 7.1250 -0.0000 -0.0000 24.3906 -54.7043 -6.0850
-0.7495 18.6680 5.9061 -5.4921 -5.4616 0.9600 0.0000 0.0000 0.0000 -9.4602 -7.9050 -2.2620 1.6845 8.1755 23.2484 1.8658 4.5706 -27.7720 8.1643 -16.2388 -53.1522 0.0000 0.0000 0.0000 18.9496 -3.2456 6.5851 0.0000 0.0000 -0.0000 -0.5096 -0.4592 -13.6599 -0.2118 2.9629 -8.1753 3.0405 0.9313 1.1455 1.1603 1.3305 -1.4809 -0.5516 0.6254 -2.1207 0.5321 0.4819 -11.5952 2.4469 -0.0246 22.3556 0.7378 0.2875 8.9030 0.0000 0.0000 0.0000 -92.7860 11.5626 23.9083 20.4973 -31.2369 -5.7870 -0.0000 -0.0000 14.1506 3.4847 -25.2993 -1.4907 -7.1250 0.0000 -0.0000 -15.8201 5.4282 14.8429 0.0000 0.0000 0.0000 90.7375 -17.1190 24.2868 -22.2315 33.2377 -6.7123 0.0000 0.0000 21.0621 -6.8690 -26.2266 3.0473 7.1250 -0.0000 -0.0000 24.3152 -54.6679 -6.0423
-0.7495 18.6675 5.9063 -5.5057 -5.4505 0.9604 0.0000 0.0000 0.0000 -9.4458 -7.9362 -2.2544 1.6871 8.1813 23.2662 1.8772 4.4973 -27.8124 8.1364 -16.2187 -53.0524 0.0000 0.0000 0.0000 18.9665 -3.2570 6.5845 0.0000 0.0000 -0.0000 -0.5107 -0.4494 -13.6703 -0.2123 2.9667 -8.1862 3.0570 0.9276 1.1314 1.1579 1.3252 -1.4780 -0.5629 0.6227 -2.1096 0.5814 0.4857 -11.5720 2.3987 -0.0175 22.3291 0.7136 0.2895 8.8896 -0.0000 0.0000 0.0000 -92.7747 11.5381 23.8716 20.4667 -31.2005 -5.7712 -0.0000 -0.0000 14.1869 3.4615 -25.3141 -1.4816 -7.1250 0.0000 -0.0000 -15.8336 5.4158 14.8606 -0.0000 0.0000 0.0000 90.7378 -17.1050 24.3016 -22.2104 33.2140 -6.7007 0.0000 0.0000 21.0207 -6.9194 -26.2062 3.0676 7.1250 -0.0000 -0.0000 24.2533 -54.6588 -6.0200
-0.7494 18.6678 5.9067 -5.5097 -5.4429 0.9495 0.0000 0.0000 0.0000 -9.4413 -7.9321 -2.2522 1.6899 8.1880 23.2864 1.8817 4.4707 -27.8290 8.1536 -16.2310 -53.1139 0.0000 0.0000 0.0000 18.9694 -3.2697 6.5983 0.0000 0.0000 -0.0000 -0.5116 -0.4499 -13.6825 -0.2164 2.9949 -8.2647 3.0653 0.9186 1.1342 1.1530 1.3132 -1.4751 -0.5722 0.6166 -2.1082 0.6147 0.4968 -11.5510 2.3733 -0.0025 22.3142 0.7007 0.2964 8.8805 0.0000 0.0000 0.0000 -92.7648 11.5326 23.8115 20.4476 -31.1778 -5.7613 -0.0000 -0.0000 14.2418 3.3927 -25.2658 -1.4494 -7.1250 0.0000 -0.0000 -15.8750 5.4677 14.8864 0.0000 0.0000 0.0000 90.7478 -17.1023 24.3254 -22.2077 33.2110 -6.6993 0.0000 0.0000 20.9769 -6.8263 -26.3551 3.0420 7.1250 -0.0000 -0.0000 24.4395 -54.7763 -6.1423
-0.7503 18.6679 5.9064 -5.5582 -5.4536 0.9378 0.0000 0.0000 0.0000 -9.3734 -7.8516 -2.2760 1.6921 8.1930 23.3017 1.8738 4.4680 -27.7748 8.1873 -16.2553 -53.2347 0.0000 0.0000 0.0000 19.0266 -3.2645 6.6166 0.0000 0.0000 -0.0000 -0.5121 -0.4529 -13.6908 -0.2146 2.9821 -8.2288 3.0957 0.9195 1.1591 1.1745 1.3166 -1.4743 -0.5677 0.6178 -2.1212 0.6067 0.4965 -11.5620 2.3632 0.0004 22.3366 0.6992 0.2963 8.8902 0.0000 -0.0000 0.0000 -92.7820 11.5499 23.7698 20.4517 -31.1827 -5.7634 -0.0000 -0.0000 14.2888 3.3590 -25.2214 -1.4327 -7.1250 0.0000 -0.0000 -15.8955 5.5130 14.8930 0.0000 -0.0000 0.0000 90.7328 -17.0945 24.3561 -22.1972 33.1992 -6.6935 0.0000 0.0000 20.9373 -6.7748 -26.5371 3.0382 7.1250 -0.0000 -0.0000 24.6079 -54.9312 -6.2839
-0.7514 18.6673 5.9063 -5.6038 -5.4811 0.9334 0.0000 0.0000 0.0000 -9.3230 -7.8416 -2.2645 1.6939 8.1970 23.3141 1.8761 4.4681 -27.7905 8.1741 -16.2458 -53.1872 0.0000 0.0000 0.0000 19.0803 -3.2395 6.6290 0.0000 0.0000 -0.0000 -0.5117 -0.4479 -13.6837 -0.1935 2.8326 -7.8129 3.1250 0.9317 1.1747 1.1910 1.3344 -1.4725 -0.5679 0.6263 -2.1274 0.6008 0.4780 -11.5863 2.3438 -0.0206 22.3639 0.6916 0.2842 8.9043 -0.0000 -0.0000 0.0000 -92.7779 11.5781 23.7923 20.4652 -31.1987 -5.7704 -0.0000 -0.0000 14.2785 3.3985 -25.2557 -1.4514 -7.1250 0.0000 -0.0000 -15.8716 5.4769 14.8801 -0.0000 -0.0000 0.0000 90.7327 -17.0940 24.3475 -22.1875 33.1883 -6.6882 0.0000 0.0000 20.9176 -6.8512 -26.5174 3.0706 7.1250 -0.0000 -0.0000 24.5209 -54.9279 -6.2576
-0.7516 18.6667 5.9063 -5.5976 -5.4922 0.9285 0.0000 0.0000 0.0000 -9.3387 -7.8821 -2.2392 1.6951 8.1997 23.3224 1.8812 4.4731 -27.8270 8.1444 -16.2245 -53.0813 0.0000 0.0000 0.0000 19.0748 -3.2294 6.6334 0.0000 -0.0000 0.0000 -0.5103 -0.4556 -13.6680 -0.1915 2.8182 -7.7731 3.1169 0.9363 1.1697 1.1826 1.3398 -1.4645 -0.5720 0.6292 -2.1162 0.6142 0.4687 -11.5861 2.3379 -0.0348 22.3522 0.6857 0.2780 8.9004 -0.0000 -0.0000 0.0000 -92.7419 11.6086 23.8702 20.4869 -31.2244 -5.7816 -0.0000 -0.0000 14.1847 3.4451 -25.3399 -1.4759 -7.1250 0.0000 -0.0000 -15.8432 5.3924 14.8777 -0.0000 -0.0000 0.0000 90.7530 -17.0908 24.3367 -22.1951 33.1968 -6.6923 0.0000 0.0000 20.8732 -6.8766 -26.4665 3.0766 7.1250 -0.0000 -0.0000 24.4631 -54.8866 -6.2163
-0.7513 18.6668 5.9061 -5.6062 -5.4831 0.9184 0.0000 0.0000 0.0000 -9.3280 -7.8730 -2.2328 1.6948 8.1992 23.3209 1.8773 4.4806 -27.8042 8.1354 -16.2180 -53.0490 0.0000 0.0000 0.0000 19.0840 -3.2418 6.6415 0.0000 0.0000 -0.0000 -0.5100 -0.4604 -13.6662 -0.2027 2.8989 -7.9974 3.1276 0.9303 1.1789 1.1750 1.3322 -1.4653 -0.5856 0.6251 -2.1220 0.6338 0.4877 -11.5543 2.3614 -0.0170 22.3305 0.6920 0.2901 8.8869 0.0000 0.0000 0.0000 -92.7224 11.6424 23.8832 20.4994 -31.2394 -5.7881 -0.0000 -0.0000 14.1419 3.4076 -25.4267 -1.4645 -7.1250 0.0000 -0.0000 -15.8647 5.3118 14.9247 0.0000 0.0000 0.0000 90.7618 -17.0971 24.3731 -22.2079 33.2111 -6.6993 0.0000 0.0000 20.8066 -6.8124 -26.5326 3.0547 7.1250 -0.0000 -0.0000 24.5683 -54.9343 -6.2748
-0.7501 18.6678 5.9060 -5.6012 -5.4740 0.9275 0.0000 0.0000 0.0000 -9.3358 -7.8661 -2.2441 1.6936 8.1963 23.3121 1.8749 4.5079 -27.8023 8.1533 -16.2308 -53.1129 0.0000 0.0000 0.0000 19.0722 -3.2474 6.6308 0.0000 0.0000 -0.0000 -0.5098 -0.4609 -13.6629 -0.2019 2.8935 -7.9824 3.1303 0.9207 1.1769 1.1691 1.3196 -1.4736 -0.5930 0.6186 -2.1295 0.6418 0.5055 -11.5413 2.3769 0.0028 22.3314 0.6981 0.3016 8.8847 0.0000 0.0000 0.0000 -92.7357 11.6370 23.5742 20.4468 -31.1769 -5.7609 -0.0000 -0.0000 14.6988 3.1572 -25.7706 -1.3738 -7.1250 0.0000 -0.0000 -16.0097 5.0009 15.1708 0.0000 0.0000 0.0000 90.7561 -17.1269 24.4166 -22.2304 33.2364 -6.7117 0.0000 0.0000 20.7753 -6.7955 -26.6023 3.0544 7.1250 -0.0000 -0.0000 24.6306 -54.9941 -6.3290
-0.7487 18.6683 5.9056 -5.5749 -5.4736 0.9476 0.0000 0.0000 0.0000 -9.3677 -7.8690 -2.2645 1.6919 8.1926 23.3005 1.8774 4.4908 -27.8101 8.1642 -16.2387 -53.1518 0.0000 0.0000 0.0000 19.0374 -3.2391 6.6060 0.0000 0.0000 -0.0000 -0.5084 -0.4685 -13.6479 -0.2009 2.8862 -7.9622 3.1076 0.9158 1.1506 1.1691 1.3113 -1.4715 -0.5795 0.6150 -2.1133 0.6398 0.5061 -11.5553 2.3552 0.0088 22.3319 0.6917 0.3021 8.8874 -0.0000 0.0000 0.0000 -92.7625 11.6111 23.2832 20.3979 -31.1188 -5.7356 -0.0000 -0.0000 15.2607 3.0019 -26.0093 -1.3174 -7.1250 0.0000 -0.0000 -16.0992 4.7838 15.3314 -0.0000 0.0000 0.0000 90.7453 -17.1332 24.4000 -22.2381 33.2450 -6.7159 0.0000 0.0000 20.8269 -6.7754 -26.6078 3.0459 7.1250 -0.0000 -0.0000 24.6537 -54.9952 -6.3362
